<svg width="48" height="48" viewBox="0 0 48 48" fill="none" xmlns="http://www.w3.org/2000/svg">
<path d="M27.3047 10.0951C19.2047 7.14331 7.35471 1.74866 7.35471 1.74866C6.51364 1.52902 6.39578 2.34331 6.39578 2.34331C6.12792 5.61652 8.19578 10.9415 9.26721 12.1362C10.3333 13.3308 26.3618 18.2272 26.3618 18.2272C26.3618 18.2272 14.0351 15.7415 11.0619 14.8844C8.08328 14.0272 9.03149 15.8379 9.03149 15.8379C9.64221 19.1433 12.5083 22.8987 14.7743 23.2522C17.0351 23.6058 26.5654 23.4665 26.5654 23.4665C26.5654 23.4665 24.6636 23.6862 21.5726 24.104C19.2851 24.4147 16.3761 24.7737 15.6208 25.0576C13.8476 25.7272 16.9065 28.4112 16.9065 28.4112C21.444 32.5255 23.8547 31.1165 23.8547 31.1165C25.6386 30.5433 27.144 30.1255 28.419 29.8201L26.8386 36.3772H31.3708L28.8743 46.2826L39.8726 31.7165H34.1136L35.3083 29.6433C35.3243 29.6701 35.3297 29.6862 35.3297 29.6862C35.3297 29.6862 39.4172 23.1451 40.9815 19.8076L41.0136 19.754H41.0083C41.2761 19.1754 41.469 18.6987 41.544 18.3719C42.4547 14.5522 35.4101 13.0469 27.3047 10.0951Z" fill="black" fill-opacity="0.45"/>
</svg>
